<svg role="img" viewBox="0 0 120 120" xmlns="http://www.w3.org/2000/svg">
  <title>Nothing</title>
  <g fill="#0f172a">
    <!-- Dot-matrix N glyph (Nothing brand mark) -->
    <circle cx="60" cy="14" r="4.5"/>
    <circle cx="48" cy="18" r="4.5"/>
    <circle cx="72" cy="18" r="4.5"/>
    <circle cx="38" cy="26" r="4.5"/>
    <circle cx="82" cy="26" r="4.5"/>
    <circle cx="30" cy="36" r="4.5"/>
    <circle cx="90" cy="36" r="4.5"/>
    <circle cx="26" cy="48" r="4.5"/>
    <circle cx="94" cy="48" r="4.5"/>
    <circle cx="24" cy="60" r="4.5"/>
    <circle cx="96" cy="60" r="4.5"/>
    <circle cx="26" cy="72" r="4.5"/>
    <circle cx="94" cy="72" r="4.5"/>
    <circle cx="30" cy="84" r="4.5"/>
    <circle cx="90" cy="84" r="4.5"/>
    <circle cx="38" cy="94" r="4.5"/>
    <circle cx="82" cy="94" r="4.5"/>
    <circle cx="48" cy="102" r="4.5"/>
    <circle cx="72" cy="102" r="4.5"/>
    <circle cx="60" cy="106" r="4.5"/>
    <!-- N diagonal & right stem -->
    <circle cx="42" cy="42" r="4.5"/>
    <circle cx="50" cy="50" r="4.5"/>
    <circle cx="58" cy="58" r="4.5"/>
    <circle cx="66" cy="66" r="4.5"/>
    <circle cx="74" cy="74" r="4.5"/>
    <circle cx="78" cy="58" r="4.5"/>
    <circle cx="78" cy="46" r="4.5"/>
    <circle cx="78" cy="34" r="4.5"/>
    <circle cx="42" cy="78" r="4.5"/>
    <circle cx="42" cy="66" r="4.5"/>
    <circle cx="42" cy="54" r="4.5"/>
  </g>
</svg>
